<?xml version="1.0" encoding="utf-8"?>
<!-- Generator: Adobe Illustrator 23.0.0, SVG Export Plug-In . SVG Version: 6.00 Build 0)  -->
<svg version="1.1" id="Layer_1" xmlns="http://www.w3.org/2000/svg" xmlns:xlink="http://www.w3.org/1999/xlink" x="0px" y="0px"
	 viewBox="0 0 60 60" style="enable-background:new 0 0 60 60;" xml:space="preserve">
<style type="text/css">
	.st0{fill:#C21D32;}
	.st1{fill:#FFFFFF;}
</style>
<g>
	<circle class="st0" cx="30" cy="30" r="29.36"/>
	<path class="st1" d="M14.41,43.9c1.37,1.31,1.46,1.05,1.5,2.93c0.04,1.88,0.02,3.43,0.48,3.98c0.46,0.55,0.95,0.65,2.02,0.4
		c1.07-0.24,1.9-0.79,3.25-1.39s1.5-0.61,2.87-0.3s4,0.87,8.55,0.4s10.24-2.59,14.49-8.57s4.73-13.01,2.38-19.84
		c-2.34-6.83-9.76-12.58-19.09-12.93C21.55,8.24,13.09,13.62,9.8,21.92C6.81,30.3,9.45,39.11,14.41,43.9z"/>
	<path class="st0" d="M17.18,35.14c-0.47,0.75-0.59,1.28-0.06,1.74s1,0.38,1.63-0.12c0.63-0.5,3.37-2.48,4.38-3.28
		c1.02-0.81,1.74-1.36,2.21-1.7c0.47-0.35,0.87-0.49,1.43-0.07c0.56,0.42,3.73,2.85,4.73,3.57c1,0.72,1.08,0.97,2.44,0.92
		s1.86-0.36,2.56-1.3s3.52-5.46,4.3-6.72c0.79-1.26,2.02-3.18,2.26-3.61s0.28-0.98-0.28-1.43c-0.51-0.41-0.94-0.34-1.9,0.41
		c-1.06,0.79-5.55,4.2-6.19,4.69c0,0-0.71,0.69-1.58,0.06c-0.87-0.63-4.46-3.34-5.38-4.02c-0.92-0.68-3.25-0.63-4.38,1.01
		C22.24,26.92,17.18,35.14,17.18,35.14z"/>
</g>
</svg>
